<?xml version="1.0" encoding="UTF-8" standalone="no"?>
<svg xmlns="http://www.w3.org/2000/svg" width="200" height="200" viewBox="0 0 200 200">
  <!-- Fundo do Selo -->
  <circle cx="100" cy="100" r="95" fill="#d4af37" stroke="#8b7500" stroke-width="2" />
  <circle cx="100" cy="100" r="85" fill="#ffe97f" stroke="#8b7500" stroke-width="1" />
  
  <!-- Padrão de Borda Ornamentada -->
  <path d="M100,15 C155,15 185,45 185,100 C185,155 155,185 100,185 C45,185 15,155 15,100 C15,45 45,15 100,15 Z" fill="none" stroke="#8b7500" stroke-width="3" stroke-dasharray="5,3" />
  
  <!-- Estrela Central -->
  <path d="M100,40 L110,80 L150,80 L118,105 L130,145 L100,122 L70,145 L82,105 L50,80 L90,80 Z" fill="#d4af37" stroke="#8b7500" stroke-width="1" />
  
  <!-- Texto Circular Superior -->
  <path id="topArc" d="M100,35 A65,65 0 0,1 100,165" fill="none" />
  <text>
    <textPath href="#topArc" startOffset="50%" text-anchor="middle" font-family="Times New Roman, serif" font-size="14" font-weight="bold" fill="#8b7500">
      FACULDADE DYNAMUS DE CAMPINAS
    </textPath>
  </text>
  
  <!-- Texto Circular Inferior -->
  <path id="bottomArc" d="M100,35 A65,65 0 0,0 100,165" fill="none" />
  <text>
    <textPath href="#bottomArc" startOffset="50%" text-anchor="middle" font-family="Times New Roman, serif" font-size="12" font-weight="bold" fill="#8b7500">
      CERTIFICADO DE EXCELÊNCIA ACADÊMICA
    </textPath>
  </text>
  
  <!-- Ano no Centro -->
  <text x="100" y="107" text-anchor="middle" font-family="Times New Roman, serif" font-size="16" font-weight="bold" fill="#8b7500">2025</text>
  
  <!-- Linhas Decorativas Radiais -->
  <g stroke="#8b7500" stroke-width="1">
    <line x1="100" y1="15" x2="100" y2="30" />
    <line x1="100" y1="170" x2="100" y2="185" />
    <line x1="15" y1="100" x2="30" y2="100" />
    <line x1="170" y1="100" x2="185" y2="100" />
    
    <line x1="38" y1="38" x2="48" y2="48" />
    <line x1="162" y1="38" x2="152" y2="48" />
    <line x1="38" y1="162" x2="48" y2="152" />
    <line x1="162" y1="162" x2="152" y2="152" />
  </g>
</svg>