<?xml version="1.0" encoding="UTF-8"?>
<svg width="150px" height="60px" viewBox="0 0 150 60" version="1.1" xmlns="http://www.w3.org/2000/svg" xmlns:xlink="http://www.w3.org/1999/xlink">
    <title>Assinatura</title>
    <g id="Signature" stroke="none" stroke-width="1" fill="none" fill-rule="evenodd">
        <path d="M12,40 C18,30 28,25 38,29 C45,32 46,38 40,42 C32,47 25,39 25,32 C25,25 39,21 48,20 C61,19 75,25 85,28 C100,33 110,30 125,20" id="Path" stroke="#000000" stroke-width="1.5" stroke-linecap="round"></path>
        <path d="M15,35 C20,32 25,38 30,40 C40,44 48,42 55,35" id="Path-2" stroke="#000000" stroke-linecap="round"></path>
        <path d="M60,30 C65,28 70,26 80,26 C90,26 100,29 110,35" id="Path-3" stroke="#000000" stroke-linecap="round"></path>
    </g>
</svg>