<?xml version="1.0" encoding="UTF-8" standalone="no"?>
<svg xmlns="http://www.w3.org/2000/svg" width="200" height="80" viewBox="0 0 200 80">
  <path d="M20,50 C25,30 45,60 50,40 C55,20 65,30 70,40 C75,50 80,20 85,30 C90,40 95,20 100,30 C105,40 110,20 115,30 C120,40 125,20 130,30 C135,40 140,20 145,30 C150,40 155,20 160,30 C165,40 175,50 180,40" 
        fill="none" stroke="#000080" stroke-width="2" />
  
  <path d="M30,55 C32,52 35,50 40,52 C45,54 50,58 55,60 C60,62 70,60 75,58 C80,56 85,54 90,52 C95,50 105,54 110,56 C115,58 125,60 130,58 C135,56 140,54 145,52 C150,50 155,52 160,54 C165,56 170,60 175,58"
        fill="none" stroke="#000080" stroke-width="1.5" />
</svg>